<svg id="kity_svg_6" xmlns="http://www.w3.org/2000/svg" xmlns:xlink="http://www.w3.org/1999/xlink" version="1.1" width="716" height="444" style="background: rgb(251, 251, 251); visibility: visible;" viewBox="0 0 716 444"><defs id="kity_defs_7"><linearGradient id="kity_linearGradient_17" x1="0" y1="0" x2="0" y2="1"><stop id="kity_stop_18" offset="0" stop-color="rgb(255, 255, 255)"></stop><stop id="kity_stop_19" offset="1" stop-color="rgb(204, 204, 204)"></stop></linearGradient><marker id="kity_marker_4" orient="auto" refX="6" refY="0" viewBox="-7 -7 14 14" markerWidth="7" markerHeight="7" markerUnits="userSpaceOnUse"><path id="kity_path_5" fill="rgb(115, 161, 191)" stroke="none" d="M6,0A6,6,0,1,1,-6,0A6,6,0,1,1,6,0"></path></marker><marker id="kity_marker_2" orient="auto" refX="6" refY="0" viewBox="-7 -7 14 14" markerWidth="7" markerHeight="7" markerUnits="userSpaceOnUse"><path id="kity_path_3" fill="rgb(115, 161, 191)" stroke="none" d="M6,0A6,6,0,1,1,-6,0A6,6,0,1,1,6,0"></path></marker></defs><g id="kity_g_8"><g id="minder1" text-rendering="optimize-speed"><g id="minder_connect_group1"><path id="kity_path_31" fill="none" stroke="rgb(115, 161, 191)" stroke-width="1" d="M76.5,226.5A114,117,0,0,1,190.5,109.5"></path><path id="kity_path_47" fill="none" stroke="rgb(115, 161, 191)" stroke-width="1" d="M76.5,226.5A114,109,0,0,0,190.5,335.5"></path><path id="kity_path_118" fill="none" stroke="rgb(115, 161, 191)" stroke-width="1" d="M359.5,31.5C379.5,31.5,379.5,31.5,399.5,31.5"></path><path id="kity_path_119" fill="none" stroke="rgb(115, 161, 191)" stroke-width="1" d="M275.5,109.5C295.5,109.5,295.5,31.5,315.5,31.5"></path><path id="kity_path_120" fill="none" stroke="rgb(115, 161, 191)" stroke-width="1" d="M374.5,83.5C394.5,83.5,394.5,83.5,414.5,83.5"></path><path id="kity_path_121" fill="none" stroke="rgb(115, 161, 191)" stroke-width="1" d="M275.5,109.5C295.5,109.5,295.5,83.5,315.5,83.5"></path><path id="kity_path_122" fill="none" stroke="rgb(115, 161, 191)" stroke-width="1" d="M361.5,135.5C381.5,135.5,381.5,135.5,401.5,135.5"></path><path id="kity_path_123" fill="none" stroke="rgb(115, 161, 191)" stroke-width="1" d="M275.5,109.5C295.5,109.5,295.5,135.5,315.5,135.5"></path><path id="kity_path_175" fill="none" stroke="rgb(115, 161, 191)" stroke-width="1" d="M275.5,109.5C295.5,109.5,295.5,187.5,315.5,187.5"></path><path id="kity_path_183" fill="none" stroke="rgb(115, 161, 191)" stroke-width="1" d="M365.5,187.5C385.5,187.5,385.5,187.5,405.5,187.5"></path><path id="kity_path_214" fill="none" stroke="rgb(115, 161, 191)" stroke-width="1" d="M374.5,257.5C394.5,257.5,394.5,257.5,414.5,257.5"></path><path id="kity_path_215" fill="none" stroke="rgb(115, 161, 191)" stroke-width="1" d="M289.5,335.5C309.5,335.5,309.5,257.5,329.5,257.5"></path><path id="kity_path_216" fill="none" stroke="rgb(115, 161, 191)" stroke-width="1" d="M369.5,309.5C389.5,309.5,389.5,309.5,409.5,309.5"></path><path id="kity_path_217" fill="none" stroke="rgb(115, 161, 191)" stroke-width="1" d="M289.5,335.5C309.5,335.5,309.5,309.5,329.5,309.5"></path><path id="kity_path_218" fill="none" stroke="rgb(115, 161, 191)" stroke-width="1" d="M385.5,361.5C405.5,361.5,405.5,361.5,425.5,361.5"></path><path id="kity_path_219" fill="none" stroke="rgb(115, 161, 191)" stroke-width="1" d="M289.5,335.5C309.5,335.5,309.5,361.5,329.5,361.5"></path><path id="kity_path_220" fill="none" stroke="rgb(115, 161, 191)" stroke-width="1" d="M378.5,413.5C398.5,413.5,398.5,413.5,418.5,413.5"></path><path id="kity_path_221" fill="none" stroke="rgb(115, 161, 191)" stroke-width="1" d="M289.5,335.5C309.5,335.5,309.5,413.5,329.5,413.5"></path></g><g id="minder_node1"><path id="node_outline1" fill="rgb(115, 161, 191)" stroke="rgb(115, 161, 191)" d="M25.5,206.5h102a5,5,0,0,1,5,5v30a5,5,0,0,1,-5,5h-102a5,5,0,0,1,-5,-5v-30a5,5,0,0,1,5,-5z" stroke-width="3"></path><g id="node_text1" fill="white"><text id="kity_text_22" text-rendering="inherit" font-size="16" dy=".8em" y="216.09999990463257" x="44.5">内存交互</text></g></g><g id="kity_g_12" display="none"><path id="kity_path_13" fill="none" stroke="none" d="M44.5,226.5h0v0h0z"></path></g><g id="kity_g_14" display="none"><path id="kity_path_15" fill="none" stroke="none" d="M44.5,226.5h0v0h0z"></path><path id="kity_path_16" fill="none" stroke="none"></path></g><g id="minder_node2" opacity="1"><g id="node_expander1" style="cursor: pointer;"><path id="kity_path_36" fill="white" stroke="gray" d="M191.5,109.5A6,6,0,1,1,179.5,109.5A6,6,0,1,1,191.5,109.5"></path><path id="kity_path_37" fill="none" stroke="gray" d="M181,109.5L190,109.5"></path></g><path id="node_outline2" fill="rgb(238, 243, 246)" stroke="rgb(115, 161, 191)" d="M195.5,96.5h77a3,3,0,0,1,3,3v20a3,3,0,0,1,-3,3h-77a3,3,0,0,1,-3,-3v-20a3,3,0,0,1,3,-3z" stroke-width="1"></path><g id="node_text2" fill="black"><text id="kity_text_33" text-rendering="inherit" font-size="14" dy=".8em" y="100.40000009536743" x="212.5">主内存</text></g></g><g id="minder_node4" opacity="1"><g id="node_expander3" style="cursor: pointer;"><path id="kity_path_52" fill="white" stroke="gray" d="M191.5,335.5A6,6,0,1,1,179.5,335.5A6,6,0,1,1,191.5,335.5"></path><path id="kity_path_53" fill="none" stroke="gray" d="M181,335.5L190,335.5"></path></g><path id="node_outline4" fill="rgb(238, 243, 246)" stroke="rgb(115, 161, 191)" d="M195.5,322.5h91a3,3,0,0,1,3,3v20a3,3,0,0,1,-3,3h-91a3,3,0,0,1,-3,-3v-20a3,3,0,0,1,3,-3z" stroke-width="1"></path><g id="node_text4" fill="black"><text id="kity_text_49" text-rendering="inherit" font-size="14" dy=".8em" y="326.40000009536743" x="212.5">工作内存</text></g></g><g id="minder_node6"><g id="node_expander5" style="cursor: pointer;" display="none"><path id="kity_path_68" fill="white" stroke="gray" d="M399.5,31.5A6,6,0,1,1,387.5,31.5A6,6,0,1,1,399.5,31.5"></path><path id="kity_path_69" fill="none" stroke="gray"></path></g><path id="node_outline6" fill="none" stroke="none" d="M404.5,20.5h204a5,5,0,0,1,5,5v12a5,5,0,0,1,-5,5h-204a5,5,0,0,1,-5,-5v-12a5,5,0,0,1,5,-5z" stroke-width="3"></path><g id="node_text6" fill="black"><text id="kity_text_65" text-rendering="inherit" font-size="12" dy=".8em" y="23.700000047683716" x="409.5">把一个变量标识为一个线程独占状态</text></g></g><g id="minder_node3"><g id="node_expander2" style="cursor: pointer;"><path id="kity_path_44" fill="white" stroke="gray" d="M315.5,31.5A6,6,0,1,1,303.5,31.5A6,6,0,1,1,315.5,31.5"></path><path id="kity_path_45" fill="none" stroke="gray" d="M305,31.5L314,31.5"></path></g><path id="node_outline3" fill="none" stroke="none" d="M320.5,20.5h34a5,5,0,0,1,5,5v12a5,5,0,0,1,-5,5h-34a5,5,0,0,1,-5,-5v-12a5,5,0,0,1,5,-5z" stroke-width="3"></path><g id="node_text3" fill="black"><text id="kity_text_41" text-rendering="inherit" font-size="12" dy=".8em" y="23.700000047683716" x="325.5">lock</text></g></g><g id="minder_node7"><g id="node_expander6" style="cursor: pointer;" display="none"><path id="kity_path_76" fill="white" stroke="gray" d="M414.5,83.5A6,6,0,1,1,402.5,83.5A6,6,0,1,1,414.5,83.5"></path><path id="kity_path_77" fill="none" stroke="gray"></path></g><path id="node_outline7" fill="none" stroke="none" d="M419.5,72.5h204a5,5,0,0,1,5,5v12a5,5,0,0,1,-5,5h-204a5,5,0,0,1,-5,-5v-12a5,5,0,0,1,5,-5z" stroke-width="3"></path><g id="node_text7" fill="black"><text id="kity_text_73" text-rendering="inherit" font-size="12" dy=".8em" y="75.70000004768372" x="424.5">把一个处于锁定状态的变量释放出来</text></g></g><g id="minder_node5"><g id="node_expander4" style="cursor: pointer;"><path id="kity_path_60" fill="white" stroke="gray" d="M315.5,83.5A6,6,0,1,1,303.5,83.5A6,6,0,1,1,315.5,83.5"></path><path id="kity_path_61" fill="none" stroke="gray" d="M305,83.5L314,83.5"></path></g><path id="node_outline5" fill="none" stroke="none" d="M320.5,72.5h49a5,5,0,0,1,5,5v12a5,5,0,0,1,-5,5h-49a5,5,0,0,1,-5,-5v-12a5,5,0,0,1,5,-5z" stroke-width="3"></path><g id="node_text5" fill="black"><text id="kity_text_57" text-rendering="inherit" font-size="12" dy=".8em" y="75.70000004768372" x="325.5">unlock</text></g></g><g id="minder_node10"><g id="node_expander9" style="cursor: pointer;" display="none"><path id="kity_path_100" fill="white" stroke="gray" d="M401.5,135.5A6,6,0,1,1,389.5,135.5A6,6,0,1,1,401.5,135.5"></path><path id="kity_path_101" fill="none" stroke="gray"></path></g><path id="node_outline10" fill="none" stroke="none" d="M406.5,124.5h264a5,5,0,0,1,5,5v12a5,5,0,0,1,-5,5h-264a5,5,0,0,1,-5,-5v-12a5,5,0,0,1,5,-5z" stroke-width="3"></path><g id="node_text10" fill="black"><text id="kity_text_97" text-rendering="inherit" font-size="12" dy=".8em" y="127.70000004768372" x="411.5">把一个变量的值从主内存传输到线程的工作内存</text></g></g><g id="minder_node9"><g id="node_expander8" style="cursor: pointer;"><path id="kity_path_92" fill="white" stroke="gray" d="M315.5,135.5A6,6,0,1,1,303.5,135.5A6,6,0,1,1,315.5,135.5"></path><path id="kity_path_93" fill="none" stroke="gray" d="M305,135.5L314,135.5"></path></g><path id="node_outline9" fill="none" stroke="none" d="M320.5,124.5h36a5,5,0,0,1,5,5v12a5,5,0,0,1,-5,5h-36a5,5,0,0,1,-5,-5v-12a5,5,0,0,1,5,-5z" stroke-width="3"></path><g id="node_text9" fill="black"><text id="kity_text_89" text-rendering="inherit" font-size="12" dy=".8em" y="127.70000004768372" x="325.5">read</text></g></g><g id="minder_node19"><g id="node_expander18" style="cursor: pointer;"><path id="kity_path_180" fill="white" stroke="gray" d="M315.5,187.5A6,6,0,1,1,303.5,187.5A6,6,0,1,1,315.5,187.5"></path><path id="kity_path_181" fill="none" stroke="gray" d="M305,187.5L314,187.5"></path></g><path id="node_outline19" fill="none" stroke="none" d="M320.5,176.5h40a5,5,0,0,1,5,5v12a5,5,0,0,1,-5,5h-40a5,5,0,0,1,-5,-5v-12a5,5,0,0,1,5,-5z" stroke-width="3"></path><g id="node_text19" fill="black"><text id="kity_text_177" text-rendering="inherit" font-size="12" dy=".8em" y="179.70000004768372" x="325.5">write</text></g></g><g id="minder_node20"><g id="node_expander19" style="cursor: pointer;" display="none"><path id="kity_path_188" fill="white" stroke="gray" d="M405.5,187.5A6,6,0,1,1,393.5,187.5A6,6,0,1,1,405.5,187.5"></path><path id="kity_path_189" fill="none" stroke="gray"></path></g><path id="node_outline20" fill="none" stroke="none" d="M410.5,176.5h247a5,5,0,0,1,5,5v12a5,5,0,0,1,-5,5h-247a5,5,0,0,1,-5,-5v-12a5,5,0,0,1,5,-5z" stroke-width="3"></path><g id="node_text20" fill="black"><text id="kity_text_185" text-rendering="inherit" font-size="12" dy=".8em" y="179.70000004768372" x="415.5">store 操作得到的变量值写入主内存的变量中</text></g></g><g id="minder_node12"><g id="node_expander11" style="cursor: pointer;" display="none"><path id="kity_path_116" fill="white" stroke="gray" d="M414.5,257.5A6,6,0,1,1,402.5,257.5A6,6,0,1,1,414.5,257.5"></path><path id="kity_path_117" fill="none" stroke="gray"></path></g><path id="node_outline12" fill="none" stroke="none" d="M419.5,246.5h272a5,5,0,0,1,5,5v12a5,5,0,0,1,-5,5h-272a5,5,0,0,1,-5,-5v-12a5,5,0,0,1,5,-5z" stroke-width="3"></path><g id="node_text12" fill="black"><text id="kity_text_113" text-rendering="inherit" font-size="12" dy=".8em" y="249.70000004768372" x="424.5">把 read 得到的变量值放入工作内存的变量副本中</text></g></g><g id="minder_node11"><g id="node_expander10" style="cursor: pointer;"><path id="kity_path_108" fill="white" stroke="gray" d="M329.5,257.5A6,6,0,1,1,317.5,257.5A6,6,0,1,1,329.5,257.5"></path><path id="kity_path_109" fill="none" stroke="gray" d="M319,257.5L328,257.5"></path></g><path id="node_outline11" fill="none" stroke="none" d="M334.5,246.5h35a5,5,0,0,1,5,5v12a5,5,0,0,1,-5,5h-35a5,5,0,0,1,-5,-5v-12a5,5,0,0,1,5,-5z" stroke-width="3"></path><g id="node_text11" fill="black"><text id="kity_text_105" text-rendering="inherit" font-size="12" dy=".8em" y="249.70000004768372" x="339.5">load</text></g></g><g id="minder_node14"><g id="node_expander13" style="cursor: pointer;" display="none"><path id="kity_path_140" fill="white" stroke="gray" d="M409.5,309.5A6,6,0,1,1,397.5,309.5A6,6,0,1,1,409.5,309.5"></path><path id="kity_path_141" fill="none" stroke="gray"></path></g><path id="node_outline14" fill="none" stroke="none" d="M414.5,298.5h240a5,5,0,0,1,5,5v12a5,5,0,0,1,-5,5h-240a5,5,0,0,1,-5,-5v-12a5,5,0,0,1,5,-5z" stroke-width="3"></path><g id="node_text14" fill="black"><text id="kity_text_137" text-rendering="inherit" font-size="12" dy=".8em" y="301.7000000476837" x="419.5">把工作内存的一个变量的值传递给执行引擎</text></g></g><g id="minder_node13"><g id="node_expander12" style="cursor: pointer;"><path id="kity_path_132" fill="white" stroke="gray" d="M329.5,309.5A6,6,0,1,1,317.5,309.5A6,6,0,1,1,329.5,309.5"></path><path id="kity_path_133" fill="none" stroke="gray" d="M319,309.5L328,309.5"></path></g><path id="node_outline13" fill="none" stroke="none" d="M334.5,298.5h30a5,5,0,0,1,5,5v12a5,5,0,0,1,-5,5h-30a5,5,0,0,1,-5,-5v-12a5,5,0,0,1,5,-5z" stroke-width="3"></path><g id="node_text13" fill="black"><text id="kity_text_129" text-rendering="inherit" font-size="12" dy=".8em" y="301.7000000476837" x="339.5">use</text></g></g><g id="minder_node16"><g id="node_expander15" style="cursor: pointer;" display="none"><path id="kity_path_156" fill="white" stroke="gray" d="M425.5,361.5A6,6,0,1,1,413.5,361.5A6,6,0,1,1,425.5,361.5"></path><path id="kity_path_157" fill="none" stroke="gray"></path></g><path id="node_outline16" fill="none" stroke="none" d="M430.5,350.5h252a5,5,0,0,1,5,5v12a5,5,0,0,1,-5,5h-252a5,5,0,0,1,-5,-5v-12a5,5,0,0,1,5,-5z" stroke-width="3"></path><g id="node_text16" fill="black"><text id="kity_text_153" text-rendering="inherit" font-size="12" dy=".8em" y="353.7000000476837" x="435.5">把一个执行引擎输出的值赋给工作内存的变量</text></g></g><g id="minder_node15"><g id="node_expander14" style="cursor: pointer;"><path id="kity_path_148" fill="white" stroke="gray" d="M329.5,361.5A6,6,0,1,1,317.5,361.5A6,6,0,1,1,329.5,361.5"></path><path id="kity_path_149" fill="none" stroke="gray" d="M319,361.5L328,361.5"></path></g><path id="node_outline15" fill="none" stroke="none" d="M334.5,350.5h46a5,5,0,0,1,5,5v12a5,5,0,0,1,-5,5h-46a5,5,0,0,1,-5,-5v-12a5,5,0,0,1,5,-5z" stroke-width="3"></path><g id="node_text15" fill="black"><text id="kity_text_145" text-rendering="inherit" font-size="12" dy=".8em" y="353.7000000476837" x="339.5">assign</text></g></g><g id="minder_node18"><g id="node_expander17" style="cursor: pointer;" display="none"><path id="kity_path_172" fill="white" stroke="gray" d="M418.5,413.5A6,6,0,1,1,406.5,413.5A6,6,0,1,1,418.5,413.5"></path><path id="kity_path_173" fill="none" stroke="gray"></path></g><path id="node_outline18" fill="none" stroke="none" d="M423.5,402.5h216a5,5,0,0,1,5,5v12a5,5,0,0,1,-5,5h-216a5,5,0,0,1,-5,-5v-12a5,5,0,0,1,5,-5z" stroke-width="3"></path><g id="node_text18" fill="black"><text id="kity_text_169" text-rendering="inherit" font-size="12" dy=".8em" y="405.7000000476837" x="428.5">把工作内存中的变量的值传送到主内存</text></g></g><g id="minder_node17"><g id="node_expander16" style="cursor: pointer;"><path id="kity_path_164" fill="white" stroke="gray" d="M329.5,413.5A6,6,0,1,1,317.5,413.5A6,6,0,1,1,329.5,413.5"></path><path id="kity_path_165" fill="none" stroke="gray" d="M319,413.5L328,413.5"></path></g><path id="node_outline17" fill="none" stroke="none" d="M334.5,402.5h39a5,5,0,0,1,5,5v12a5,5,0,0,1,-5,5h-39a5,5,0,0,1,-5,-5v-12a5,5,0,0,1,5,-5z" stroke-width="3"></path><g id="node_text17" fill="black"><text id="kity_text_161" text-rendering="inherit" font-size="12" dy=".8em" y="405.7000000476837" x="339.5">store</text></g></g></g></g></svg>