<svg id="kity_svg_6" xmlns="http://www.w3.org/2000/svg" xmlns:xlink="http://www.w3.org/1999/xlink" version="1.1" width="540" height="198" style="background: rgb(251, 251, 251); visibility: visible;" viewBox="0 0 540 198"><defs id="kity_defs_7"><linearGradient id="kity_linearGradient_17" x1="0" y1="0" x2="0" y2="1"><stop id="kity_stop_18" offset="0" stop-color="rgb(255, 255, 255)"></stop><stop id="kity_stop_19" offset="1" stop-color="rgb(204, 204, 204)"></stop></linearGradient><marker id="kity_marker_2" orient="auto" refX="6" refY="0" viewBox="-7 -7 14 14" markerWidth="7" markerHeight="7" markerUnits="userSpaceOnUse"><path id="kity_path_3" fill="rgb(115, 161, 191)" stroke="none" d="M6,0A6,6,0,1,1,-6,0A6,6,0,1,1,6,0"></path></marker></defs><g id="kity_g_8"><g id="minder1" text-rendering="optimize-speed"><g id="minder_connect_group1"><path id="kity_path_31" fill="none" stroke="rgb(115, 161, 191)" stroke-width="1" d="M77.5,99.5A175,66,0,0,1,252.5,33.5"></path><path id="kity_path_39" fill="none" stroke="rgb(115, 161, 191)" stroke-width="1" d="M77.5,99.5A175,0,0,0,1,252.5,99.5"></path><path id="kity_path_47" fill="none" stroke="rgb(115, 161, 191)" stroke-width="1" d="M77.5,99.5A175,66,0,0,0,252.5,165.5"></path></g><g id="minder_node1"><path id="node_outline1" fill="rgb(115, 161, 191)" stroke="rgb(115, 161, 191)" d="M25.5,79.5h104a5,5,0,0,1,5,5v30a5,5,0,0,1,-5,5h-104a5,5,0,0,1,-5,-5v-30a5,5,0,0,1,5,-5z" stroke-width="3"></path><g id="node_text1" fill="white"><text id="kity_text_22" text-rendering="inherit" font-size="16" dy=".8em" y="89.09999990463257" x="44.5">实现线程</text></g></g><g id="kity_g_12" display="none"><path id="kity_path_13" fill="none" stroke="none" d="M44.5,99.5h0v0h0z"></path></g><g id="kity_g_14" display="none"><path id="kity_path_15" fill="none" stroke="none" d="M44.5,99.5h0v0h0z"></path><path id="kity_path_16" fill="none" stroke="none"></path></g><g id="minder_node2" opacity="1"><g id="node_expander1" style="cursor: pointer;" display="none"><path id="kity_path_36" fill="white" stroke="gray" d="M253.5,33.5A6,6,0,1,1,241.5,33.5A6,6,0,1,1,253.5,33.5"></path><path id="kity_path_37" fill="none" stroke="gray" d="M243,33.5L252,33.5"></path></g><path id="node_outline2" fill="rgb(238, 243, 246)" stroke="rgb(115, 161, 191)" d="M257.5,20.5h171a3,3,0,0,1,3,3v20a3,3,0,0,1,-3,3h-171a3,3,0,0,1,-3,-3v-20a3,3,0,0,1,3,-3z" stroke-width="1"></path><g id="node_text2" fill="black"><text id="kity_text_33" text-rendering="inherit" font-size="14" dy=".8em" y="24.40000009536743" x="274.5">使用内核线程实现 1:1</text></g></g><g id="minder_node3"><g id="node_expander2" style="cursor: pointer;" display="none"><path id="kity_path_44" fill="white" stroke="gray" d="M253.5,99.5A6,6,0,1,1,241.5,99.5A6,6,0,1,1,253.5,99.5"></path><path id="kity_path_45" fill="none" stroke="gray"></path></g><path id="node_outline3" fill="rgb(238, 243, 246)" stroke="rgb(115, 161, 191)" d="M257.5,86.5h174a3,3,0,0,1,3,3v20a3,3,0,0,1,-3,3h-174a3,3,0,0,1,-3,-3v-20a3,3,0,0,1,3,-3z" stroke-width="1"></path><g id="node_text3" fill="black"><text id="kity_text_41" text-rendering="inherit" font-size="14" dy=".8em" y="90.40000009536743" x="274.5">使用用户线程实现 1:N</text></g></g><g id="minder_node4"><g id="node_expander3" style="cursor: pointer;" display="none"><path id="kity_path_52" fill="white" stroke="gray" d="M253.5,165.5A6,6,0,1,1,241.5,165.5A6,6,0,1,1,253.5,165.5"></path><path id="kity_path_53" fill="none" stroke="gray"></path></g><path id="node_outline4" fill="rgb(238, 243, 246)" stroke="rgb(115, 161, 191)" d="M257.5,152.5h260a3,3,0,0,1,3,3v20a3,3,0,0,1,-3,3h-260a3,3,0,0,1,-3,-3v-20a3,3,0,0,1,3,-3z" stroke-width="1"></path><g id="node_text4" fill="black"><text id="kity_text_49" text-rendering="inherit" font-size="14" dy=".8em" y="156.40000009536743" x="274.5">使用用户线程+轻量级线程实现 N:M</text></g></g></g></g></svg>